<svg version="1.1" id="layer" width="82px" height="30px" preserveAspectRatio="none" xmlns="http://www.w3.org/2000/svg" xmlns:xlink="http://www.w3.org/1999/xlink" x="0px" y="0px"
	 viewBox="-180 90 1000 400" >
	<style type="text/css">
		.st0{fill:#00489A;}
		.st1{fill:#FDC300;}
	</style>
	<g>
		<path class="st0" d="M1.3,220.6h-41c0-6.7-0.8-11.2-2.4-13.6c-2.4-3.4-9.2-5.1-20.2-5.1c-10.7,0-17.8,1-21.3,2.9
			c-3.5,2-5.2,6.3-5.2,12.8c0,6,1.5,9.9,4.6,11.8c2.2,1.3,5.1,2.1,8.7,2.4l8.3,0.6c17.7,1.2,28.8,2,33.2,2.5
			c14,1.4,24.2,5.1,30.5,11.2c5,4.7,7.9,10.9,8.9,18.5c0.5,4.5,0.8,9.7,0.8,15.4c0,13.2-1.3,22.9-3.8,29
			c-4.6,11.2-14.8,18.3-30.8,21.3c-6.7,1.2-16.9,1.9-30.7,1.9c-23,0-39-1.4-48-4.1c-11.1-3.4-18.4-10.2-22-20.5c-2-5.7-3-15.2-3-28.6
			h41c0,1.5,0,2.6,0,3.4c0,7.1,2.1,11.7,6.1,13.7c2.8,1.4,6.3,2.1,10.3,2.2h15.1c7.7,0,12.6-0.4,14.7-1.2c3.8-1.5,6.2-3.9,7.4-7.2
			c0.6-2,0.9-4.7,0.9-7.9c0-7.2-2.6-11.6-7.9-13.2c-2-0.6-11.1-1.5-27.5-2.6c-13.1-0.9-22.2-1.8-27.3-2.7
			c-13.4-2.5-22.4-7.7-26.9-15.5c-3.9-6.7-5.9-16.8-5.9-30.3c0-10.3,1.1-18.5,3.2-24.7c2.1-6.2,5.6-10.9,10.3-14.1
			c6.9-4.9,15.8-7.9,26.5-8.7c9-0.8,18.9-1.2,29.9-1.2c17.2,0,29.5,1,36.8,3c17.9,4.8,26.8,18.2,26.8,40.3
			C1.7,214.3,1.6,217,1.3,220.6"/>
		<path class="st0" d="M181.8,332.3V168.4h64.3h10.1h7.8c11.3,0,19.9,0.9,25.8,2.8c13.5,4.2,22.6,12.9,27.2,26
			c2.4,6.9,3.6,17.2,3.6,31.1c0,16.6-1.3,28.6-4,35.9c-5.3,14.4-16.1,22.7-32.5,24.8c-1.9,0.3-10.1,0.6-24.6,0.8l-7.3,0.2h-26.3v42.3
			H181.8 M225.9,251.9h27.5c8.7-0.3,14-1,15.9-2c2.6-1.4,4.4-4.3,5.2-8.6c0.5-2.9,0.8-7.1,0.8-12.8c0-6.9-0.5-12.1-1.7-15.4
			c-1.6-4.7-5.4-7.6-11.4-8.6c-1.2-0.2-4-0.2-8.6-0.2h-27.9V251.9z"/>
		<path class="st0" d="M414.8,303.9h-59l-7.9,28.3h-45.7l49.3-163.9H418l49.9,163.9h-44.7L414.8,303.9z M406,272l-20.7-71l-20.1,71
			H406z"/>
		<path class="st1" d="M120.9,191.4c18.2,0,34.4,8.4,45.1,21.5l9.5-20.4c-14.9-14-35.1-22.7-57.4-22.7c-34.8,0-64.5,21-76.7,50.7
			H22.9l-11,23.5h23.9c-0.2,2.2-0.3,4.4-0.3,6.6c0,2.7,0.2,5.3,0.4,8h-12l-11,23.5h29c12.5,29,41.9,49.3,76.1,49.3
			c17.2,0,33.2-5.2,46.5-14v-28.8c-10.7,12.2-26.3,19.8-43.7,19.8c-20.3,0-38.2-10.5-48.7-26.4h60.8l10.9-23.5H63.3
			c-0.4-2.8-0.7-5.7-0.7-8.6c0-2,0.1-4,0.3-5.9h87.8l11-23.5H70.6C80.7,203.1,99.4,191.4,120.9,191.4"/>
		<path class="st0" d="M120.9,192.1c17.3,0,33.6,7.7,44.6,21.3l0.7,0.9l0.5-1l9.5-20.4l0.2-0.5L176,192
			c-15.6-14.8-36.2-22.9-57.9-22.9c-17,0-33.3,5-47.2,14.4c-13.6,9.1-24,21.9-30.1,36.8l0.7-0.4H22.9h-0.5l-0.2,0.4l-11,23.5l-0.5,1
			h1.1h23.9l-0.7-0.8c-0.2,2.4-0.3,4.6-0.3,6.6c0,2.6,0.1,5.3,0.4,8.1l0.7-0.8h-12h-0.4l-0.2,0.4l-11,23.5l-0.5,1h1.1h29l-0.7-0.4
			c13.1,30.2,43.2,49.7,76.8,49.7c16.8,0,33-4.9,46.9-14.1l0.3-0.2v-0.4v-28.8v-1.9l-1.2,1.4c-10.9,12.4-26.6,19.6-43.1,19.6
			c-19.4,0-37.4-9.7-48.1-26l-0.6,1.1h60.8h0.4l0.2-0.4l10.9-23.5l0.5-1H144H63.4l0.7,0.6c-0.4-2.8-0.6-5.7-0.6-8.6
			c0-1.9,0.1-3.9,0.3-5.8l-0.7,0.6h87.8h0.5l0.2-0.4l10.9-23.5l0.5-1h-1.1H70.6l0.6,1.1C81.5,203.1,100.5,192.1,120.9,192.1
			M70.6,221.2h91.2l-0.6-1l-11,23.5l0.6-0.4H63h-0.6l-0.1,0.6c-0.2,2-0.3,4-0.3,6c0,2.9,0.2,5.8,0.7,8.8l0.1,0.6h0.6H144l-0.6-1
			l-10.9,23.5l0.6-0.4H72.3H71l0.7,1.1c10.9,16.7,29.4,26.7,49.2,26.7c16.9,0,33-7.3,44.2-20l-1.2-0.5v28.8l0.3-0.6
			c-13.6,9.1-29.6,13.9-46.1,13.9c-33,0-62.6-19.2-75.5-48.9l-0.2-0.4H42h-29l0.7,1l10.9-23.5l-0.6,0.4h12h0.8l-0.1-0.8
			c-0.3-2.6-0.4-5.3-0.4-7.9c0-2,0.1-4.1,0.3-6.5l0.1-0.8h-0.8H11.9l0.6,1l11-23.5l-0.6,0.4h18.5h0.5l0.2-0.4
			c6-14.7,16.3-27.2,29.6-36.2c13.7-9.2,29.7-14.1,46.4-14.1c21.3,0,41.6,8,57,22.5l-0.2-0.8l-9.5,20.4l1.2-0.2
			c-11.2-13.8-27.9-21.8-45.7-21.8c-20.9,0-40.4,11.3-50.9,29.5l-0.6,1H70.6z"/>
	</g>
</svg>
